<svg xmlns="http://www.w3.org/2000/svg" xmlns:xlink="http://www.w3.org/1999/xlink" contentStyleType="text/css" height="726px" preserveAspectRatio="none" style="width:795px;height:726px;background:#FFFFFF;" version="1.1" viewBox="0 0 795 726" width="795px" zoomAndPan="magnify"><defs/><g><text fill="#000000" font-family="sans-serif" font-size="14" font-weight="bold" lengthAdjust="spacing" textLength="65" x="358.25" y="22.9951">institute</text><!--class Assistant--><g id="elem_Assistant"><rect codeLine="7" fill="#F1F1F1" height="74.8906" id="Assistant" rx="2.5" ry="2.5" style="stroke:#181818;stroke-width:0.5;" width="150" x="422.5" y="436.2969"/><text fill="#000000" font-family="sans-serif" font-size="14" lengthAdjust="spacing" textLength="63" x="466" y="454.292">Assistant</text><line style="stroke:#181818;stroke-width:0.5;" x1="423.5" x2="571.5" y1="462.5938" y2="462.5938"/><ellipse cx="433.5" cy="476.2422" fill="#000000" rx="3" ry="3" style="stroke:#000000;stroke-width:1.0;"/><text fill="#000000" font-family="sans-serif" font-size="14" lengthAdjust="spacing" textLength="70" x="442.5" y="479.5889">id: integer</text><line style="stroke:#181818;stroke-width:1.0;" x1="423.5" x2="571.5" y1="486.8906" y2="486.8906"/><ellipse cx="433.5" cy="500.5391" fill="#000000" rx="3" ry="3" style="stroke:#000000;stroke-width:1.0;"/><text fill="#000000" font-family="sans-serif" font-size="14" lengthAdjust="spacing" textLength="122" x="442.5" y="503.8857">details_id: integer</text></g><!--class inscription_session--><g id="elem_inscription_session"><rect codeLine="12" fill="#F1F1F1" height="74.8906" id="inscription_session" rx="2.5" ry="2.5" style="stroke:#181818;stroke-width:0.5;" width="174" x="415.5" y="44.2969"/><text fill="#000000" font-family="sans-serif" font-size="14" lengthAdjust="spacing" textLength="132" x="436.5" y="62.292">inscription_session</text><line style="stroke:#181818;stroke-width:0.5;" x1="416.5" x2="588.5" y1="70.5938" y2="70.5938"/><ellipse cx="426.5" cy="84.2422" fill="#000000" rx="3" ry="3" style="stroke:#000000;stroke-width:1.0;"/><text fill="#000000" font-family="sans-serif" font-size="14" lengthAdjust="spacing" textLength="148" x="435.5" y="87.5889">inscription_id: integer</text><ellipse cx="426.5" cy="100.5391" fill="#000000" rx="3" ry="3" style="stroke:#000000;stroke-width:1.0;"/><text fill="#000000" font-family="sans-serif" font-size="14" lengthAdjust="spacing" textLength="131" x="435.5" y="103.8857">session_id: integer</text><line style="stroke:#181818;stroke-width:1.0;" x1="416.5" x2="588.5" y1="111.1875" y2="111.1875"/></g><!--class Teacher--><g id="elem_Teacher"><rect codeLine="17" fill="#F1F1F1" height="74.8906" id="Teacher" rx="2.5" ry="2.5" style="stroke:#181818;stroke-width:0.5;" width="150" x="237.5" y="436.2969"/><text fill="#000000" font-family="sans-serif" font-size="14" lengthAdjust="spacing" textLength="57" x="284" y="454.292">Teacher</text><line style="stroke:#181818;stroke-width:0.5;" x1="238.5" x2="386.5" y1="462.5938" y2="462.5938"/><ellipse cx="248.5" cy="476.2422" fill="#000000" rx="3" ry="3" style="stroke:#000000;stroke-width:1.0;"/><text fill="#000000" font-family="sans-serif" font-size="14" lengthAdjust="spacing" textLength="70" x="257.5" y="479.5889">id: integer</text><line style="stroke:#181818;stroke-width:1.0;" x1="238.5" x2="386.5" y1="486.8906" y2="486.8906"/><ellipse cx="248.5" cy="500.5391" fill="#000000" rx="3" ry="3" style="stroke:#000000;stroke-width:1.0;"/><text fill="#000000" font-family="sans-serif" font-size="14" lengthAdjust="spacing" textLength="122" x="257.5" y="503.8857">details_id: integer</text></g><!--class Student--><g id="elem_Student"><rect codeLine="22" fill="#F1F1F1" height="123.7813" id="Student" rx="2.5" ry="2.5" style="stroke:#181818;stroke-width:0.5;" width="174" x="607.5" y="411.8569"/><text fill="#000000" font-family="sans-serif" font-size="14" lengthAdjust="spacing" textLength="55" x="667" y="429.852">Student</text><line style="stroke:#181818;stroke-width:0.5;" x1="608.5" x2="780.5" y1="438.1538" y2="438.1538"/><ellipse cx="618.5" cy="451.8022" fill="#000000" rx="3" ry="3" style="stroke:#000000;stroke-width:1.0;"/><text fill="#000000" font-family="sans-serif" font-size="14" lengthAdjust="spacing" textLength="70" x="627.5" y="455.1489">id: integer</text><line style="stroke:#181818;stroke-width:1.0;" x1="608.5" x2="780.5" y1="462.4506" y2="462.4506"/><ellipse cx="618.5" cy="476.0991" fill="#000000" rx="3" ry="3" style="stroke:#000000;stroke-width:1.0;"/><text fill="#000000" font-family="sans-serif" font-size="14" lengthAdjust="spacing" textLength="122" x="627.5" y="479.4457">details_id: integer</text><ellipse cx="618.5" cy="492.3959" fill="#000000" rx="3" ry="3" style="stroke:#000000;stroke-width:1.0;"/><text fill="#000000" font-family="sans-serif" font-size="14" lengthAdjust="spacing" textLength="118" x="627.5" y="495.7426">username: string</text><ellipse cx="618.5" cy="508.6928" fill="#000000" rx="3" ry="3" style="stroke:#000000;stroke-width:1.0;"/><text fill="#000000" font-family="sans-serif" font-size="14" lengthAdjust="spacing" textLength="115" x="627.5" y="512.0395">password: string</text><text fill="#000000" font-family="sans-serif" font-size="14" lengthAdjust="spacing" textLength="148" x="627.5" y="528.3364">creditCard_id: integer</text></g><!--class Session--><g id="elem_Session"><rect codeLine="30" fill="#F1F1F1" height="172.6719" id="Session" rx="2.5" ry="2.5" style="stroke:#181818;stroke-width:0.5;" width="181" x="309" y="179.1869"/><text fill="#000000" font-family="sans-serif" font-size="14" lengthAdjust="spacing" textLength="55" x="372" y="197.182">Session</text><line style="stroke:#181818;stroke-width:0.5;" x1="310" x2="489" y1="205.4838" y2="205.4838"/><ellipse cx="320" cy="219.1322" fill="#000000" rx="3" ry="3" style="stroke:#000000;stroke-width:1.0;"/><text fill="#000000" font-family="sans-serif" font-size="14" lengthAdjust="spacing" textLength="70" x="329" y="222.4789">id: integer</text><line style="stroke:#181818;stroke-width:1.0;" x1="310" x2="489" y1="229.7806" y2="229.7806"/><ellipse cx="320" cy="243.4291" fill="#000000" rx="3" ry="3" style="stroke:#000000;stroke-width:1.0;"/><text fill="#000000" font-family="sans-serif" font-size="14" lengthAdjust="spacing" textLength="125" x="329" y="246.7757">course_id: integer</text><ellipse cx="320" cy="259.7259" fill="#000000" rx="3" ry="3" style="stroke:#000000;stroke-width:1.0;"/><text fill="#000000" font-family="sans-serif" font-size="14" lengthAdjust="spacing" textLength="130" x="329" y="263.0726">teacher_id: integer</text><text fill="#000000" font-family="sans-serif" font-size="14" lengthAdjust="spacing" textLength="139" x="329" y="279.3695">assistant_id: integer</text><ellipse cx="320" cy="292.3197" fill="#000000" rx="3" ry="3" style="stroke:#000000;stroke-width:1.0;"/><text fill="#000000" font-family="sans-serif" font-size="14" lengthAdjust="spacing" textLength="155" x="329" y="295.6664">academicYear: integer</text><ellipse cx="320" cy="308.6166" fill="#000000" rx="3" ry="3" style="stroke:#000000;stroke-width:1.0;"/><text fill="#000000" font-family="sans-serif" font-size="14" lengthAdjust="spacing" textLength="115" x="329" y="311.9632">firstLesson: date</text><ellipse cx="320" cy="324.9134" fill="#000000" rx="3" ry="3" style="stroke:#000000;stroke-width:1.0;"/><text fill="#000000" font-family="sans-serif" font-size="14" lengthAdjust="spacing" textLength="114" x="329" y="328.2601">lastLesson: date</text><ellipse cx="320" cy="341.2103" fill="#000000" rx="3" ry="3" style="stroke:#000000;stroke-width:1.0;"/><text fill="#000000" font-family="sans-serif" font-size="14" lengthAdjust="spacing" textLength="83" x="329" y="344.557">code: string</text></g><!--class Person--><g id="elem_Person"><rect codeLine="41" fill="#F1F1F1" height="123.7813" id="Person" rx="2.5" ry="2.5" style="stroke:#181818;stroke-width:0.5;" width="160" x="413.5" y="595.6369"/><text fill="#000000" font-family="sans-serif" font-size="14" lengthAdjust="spacing" textLength="49" x="469" y="613.632">Person</text><line style="stroke:#181818;stroke-width:0.5;" x1="414.5" x2="572.5" y1="621.9338" y2="621.9338"/><ellipse cx="424.5" cy="635.5822" fill="#000000" rx="3" ry="3" style="stroke:#000000;stroke-width:1.0;"/><text fill="#000000" font-family="sans-serif" font-size="14" lengthAdjust="spacing" textLength="70" x="433.5" y="638.9289">id: integer</text><line style="stroke:#181818;stroke-width:1.0;" x1="414.5" x2="572.5" y1="646.2306" y2="646.2306"/><ellipse cx="424.5" cy="659.8791" fill="#000000" rx="3" ry="3" style="stroke:#000000;stroke-width:1.0;"/><text fill="#000000" font-family="sans-serif" font-size="14" lengthAdjust="spacing" textLength="113" x="433.5" y="663.2257">firstName: string</text><ellipse cx="424.5" cy="676.1759" fill="#000000" rx="3" ry="3" style="stroke:#000000;stroke-width:1.0;"/><text fill="#000000" font-family="sans-serif" font-size="14" lengthAdjust="spacing" textLength="112" x="433.5" y="679.5226">lastName: string</text><text fill="#000000" font-family="sans-serif" font-size="14" lengthAdjust="spacing" textLength="134" x="433.5" y="695.8195">birthDate: datetime</text><ellipse cx="424.5" cy="708.7697" fill="#000000" rx="3" ry="3" style="stroke:#000000;stroke-width:1.0;"/><text fill="#000000" font-family="sans-serif" font-size="14" lengthAdjust="spacing" textLength="84" x="433.5" y="712.1164">email: string</text></g><!--class Inscription--><g id="elem_Inscription"><rect codeLine="49" fill="#F1F1F1" height="91.1875" id="Inscription" rx="2.5" ry="2.5" style="stroke:#181818;stroke-width:0.5;" width="163" x="569" y="219.9269"/><text fill="#000000" font-family="sans-serif" font-size="14" lengthAdjust="spacing" textLength="71" x="615" y="237.922">Inscription</text><line style="stroke:#181818;stroke-width:0.5;" x1="570" x2="731" y1="246.2238" y2="246.2238"/><ellipse cx="580" cy="259.8722" fill="#000000" rx="3" ry="3" style="stroke:#000000;stroke-width:1.0;"/><text fill="#000000" font-family="sans-serif" font-size="14" lengthAdjust="spacing" textLength="70" x="589" y="263.2189">id: integer</text><line style="stroke:#181818;stroke-width:1.0;" x1="570" x2="731" y1="270.5206" y2="270.5206"/><ellipse cx="580" cy="284.1691" fill="#000000" rx="3" ry="3" style="stroke:#000000;stroke-width:1.0;"/><text fill="#000000" font-family="sans-serif" font-size="14" lengthAdjust="spacing" textLength="131" x="589" y="287.5157">student_id: integer</text><ellipse cx="580" cy="300.4659" fill="#000000" rx="3" ry="3" style="stroke:#000000;stroke-width:1.0;"/><text fill="#000000" font-family="sans-serif" font-size="14" lengthAdjust="spacing" textLength="137" x="589" y="303.8126">createdAt: datetime</text></g><!--class Faculty--><g id="elem_Faculty"><rect codeLine="55" fill="#F1F1F1" height="74.8906" id="Faculty" rx="2.5" ry="2.5" style="stroke:#181818;stroke-width:0.5;" width="150" x="29.5" y="620.0769"/><text fill="#000000" font-family="sans-serif" font-size="14" lengthAdjust="spacing" textLength="48" x="80.5" y="638.072">Faculty</text><line style="stroke:#181818;stroke-width:0.5;" x1="30.5" x2="178.5" y1="646.3738" y2="646.3738"/><ellipse cx="40.5" cy="660.0222" fill="#000000" rx="3" ry="3" style="stroke:#000000;stroke-width:1.0;"/><text fill="#000000" font-family="sans-serif" font-size="14" lengthAdjust="spacing" textLength="70" x="49.5" y="663.3689">id: integer</text><line style="stroke:#181818;stroke-width:1.0;" x1="30.5" x2="178.5" y1="670.6706" y2="670.6706"/><ellipse cx="40.5" cy="684.3191" fill="#000000" rx="3" ry="3" style="stroke:#000000;stroke-width:1.0;"/><text fill="#000000" font-family="sans-serif" font-size="14" lengthAdjust="spacing" textLength="87" x="49.5" y="687.6657">name: string</text></g><!--class CreditCard--><g id="elem_CreditCard"><rect codeLine="60" fill="#F1F1F1" height="123.7813" id="CreditCard" rx="2.5" ry="2.5" style="stroke:#181818;stroke-width:0.5;" width="180" x="608.5" y="595.6369"/><text fill="#000000" font-family="sans-serif" font-size="14" lengthAdjust="spacing" textLength="73" x="662" y="613.632">CreditCard</text><line style="stroke:#181818;stroke-width:0.5;" x1="609.5" x2="787.5" y1="621.9338" y2="621.9338"/><ellipse cx="619.5" cy="635.5822" fill="#000000" rx="3" ry="3" style="stroke:#000000;stroke-width:1.0;"/><text fill="#000000" font-family="sans-serif" font-size="14" lengthAdjust="spacing" textLength="70" x="628.5" y="638.9289">id: integer</text><line style="stroke:#181818;stroke-width:1.0;" x1="609.5" x2="787.5" y1="646.2306" y2="646.2306"/><ellipse cx="619.5" cy="659.8791" fill="#000000" rx="3" ry="3" style="stroke:#000000;stroke-width:1.0;"/><text fill="#000000" font-family="sans-serif" font-size="14" lengthAdjust="spacing" textLength="154" x="628.5" y="663.2257">ownerFullName: string</text><ellipse cx="619.5" cy="676.1759" fill="#000000" rx="3" ry="3" style="stroke:#000000;stroke-width:1.0;"/><text fill="#000000" font-family="sans-serif" font-size="14" lengthAdjust="spacing" textLength="102" x="628.5" y="679.5226">number: string</text><ellipse cx="619.5" cy="692.4728" fill="#000000" rx="3" ry="3" style="stroke:#000000;stroke-width:1.0;"/><text fill="#000000" font-family="sans-serif" font-size="14" lengthAdjust="spacing" textLength="69" x="628.5" y="695.8195">pin: string</text><ellipse cx="619.5" cy="708.7697" fill="#000000" rx="3" ry="3" style="stroke:#000000;stroke-width:1.0;"/><text fill="#000000" font-family="sans-serif" font-size="14" lengthAdjust="spacing" textLength="140" x="628.5" y="712.1164">expirationDate: date</text></g><!--class Course--><g id="elem_Course"><rect codeLine="68" fill="#F1F1F1" height="107.4844" id="Course" rx="2.5" ry="2.5" style="stroke:#181818;stroke-width:0.5;" width="161" x="24" y="420.0069"/><text fill="#000000" font-family="sans-serif" font-size="14" lengthAdjust="spacing" textLength="50" x="79.5" y="438.002">Course</text><line style="stroke:#181818;stroke-width:0.5;" x1="25" x2="184" y1="446.3038" y2="446.3038"/><ellipse cx="35" cy="459.9522" fill="#000000" rx="3" ry="3" style="stroke:#000000;stroke-width:1.0;"/><text fill="#000000" font-family="sans-serif" font-size="14" lengthAdjust="spacing" textLength="70" x="44" y="463.2989">id: integer</text><line style="stroke:#181818;stroke-width:1.0;" x1="25" x2="184" y1="470.6006" y2="470.6006"/><text fill="#000000" font-family="sans-serif" font-size="14" lengthAdjust="spacing" textLength="121" x="44" y="487.5957">faculty_id: integer</text><text fill="#000000" font-family="sans-serif" font-size="14" lengthAdjust="spacing" textLength="135" x="44" y="503.8926">required_id: integer</text><ellipse cx="35" cy="516.8428" fill="#000000" rx="3" ry="3" style="stroke:#000000;stroke-width:1.0;"/><text fill="#000000" font-family="sans-serif" font-size="14" lengthAdjust="spacing" textLength="87" x="44" y="520.1895">name: string</text></g><!--link Assistant to Person--><g id="link_Assistant_Person"><path codeLine="75" d="M472.5,526.3769 C472.5,550.5369 472.5,559.4769 472.5,587.3369 " fill="none" id="Assistant-Person" style="stroke:#181818;stroke-width:1.0;"/><line style="stroke:#181818;stroke-width:1.0;" x1="472.5" x2="472.5" y1="522.3769" y2="511.3769"/><ellipse cx="472.5" cy="522.3769" fill="none" rx="4" ry="4" style="stroke:#181818;stroke-width:1.0;"/><line style="stroke:#181818;stroke-width:1.0;" x1="468.5" x2="476.5" y1="515.3769" y2="515.3769"/><line style="stroke:#181818;stroke-width:1.0;" x1="476.5" x2="468.5" y1="591.3369" y2="591.3369"/><line style="stroke:#181818;stroke-width:1.0;" x1="476.5" x2="468.5" y1="588.3369" y2="588.3369"/><line style="stroke:#181818;stroke-width:1.0;" x1="472.5" x2="472.5" y1="587.3369" y2="595.3369"/></g><!--link inscription_session to Inscription--><g id="link_inscription_session_Inscription"><path codeLine="76" d="M579.25,137.3669 C579.25,166.3569 579.25,180.5569 579.25,211.4669 " fill="none" id="inscription_session-Inscription" style="stroke:#181818;stroke-width:1.0;"/><line style="stroke:#181818;stroke-width:1.0;" x1="579.25" x2="573.25" y1="127.3669" y2="119.3669"/><line style="stroke:#181818;stroke-width:1.0;" x1="579.25" x2="585.25" y1="127.3669" y2="119.3669"/><line style="stroke:#181818;stroke-width:1.0;" x1="579.25" x2="579.25" y1="127.3669" y2="119.3669"/><ellipse cx="579.25" cy="133.3669" fill="none" rx="4" ry="4" style="stroke:#181818;stroke-width:1.0;"/><line style="stroke:#181818;stroke-width:1.0;" x1="583.25" x2="575.25" y1="215.4669" y2="215.4669"/><line style="stroke:#181818;stroke-width:1.0;" x1="583.25" x2="575.25" y1="212.4669" y2="212.4669"/><line style="stroke:#181818;stroke-width:1.0;" x1="579.25" x2="579.25" y1="211.4669" y2="219.4669"/></g><!--link inscription_session to Session--><g id="link_inscription_session_Session"><path codeLine="77" d="M452.75,137.3669 C452.75,154.6969 452.75,150.0369 452.75,170.9969 " fill="none" id="inscription_session-Session" style="stroke:#181818;stroke-width:1.0;"/><line style="stroke:#181818;stroke-width:1.0;" x1="452.75" x2="446.75" y1="127.3669" y2="119.3669"/><line style="stroke:#181818;stroke-width:1.0;" x1="452.75" x2="458.75" y1="127.3669" y2="119.3669"/><line style="stroke:#181818;stroke-width:1.0;" x1="452.75" x2="452.75" y1="127.3669" y2="119.3669"/><ellipse cx="452.75" cy="133.3669" fill="none" rx="4" ry="4" style="stroke:#181818;stroke-width:1.0;"/><line style="stroke:#181818;stroke-width:1.0;" x1="456.75" x2="448.75" y1="174.9969" y2="174.9969"/><line style="stroke:#181818;stroke-width:1.0;" x1="456.75" x2="448.75" y1="171.9969" y2="171.9969"/><line style="stroke:#181818;stroke-width:1.0;" x1="452.75" x2="452.75" y1="170.9969" y2="178.9969"/></g><!--link Teacher to Person--><g id="link_Teacher_Person"><path codeLine="78" d="M402.77,474.4169 C419.82,474.4169 418,474.4169 418,474.4169 C418,474.4169 418,534.1969 418,587.2769 " fill="none" id="Teacher-Person" style="stroke:#181818;stroke-width:1.0;"/><line style="stroke:#181818;stroke-width:1.0;" x1="398.77" x2="387.77" y1="474.4169" y2="474.4169"/><ellipse cx="398.77" cy="474.4169" fill="none" rx="4" ry="4" style="stroke:#181818;stroke-width:1.0;"/><line style="stroke:#181818;stroke-width:1.0;" x1="391.77" x2="391.77" y1="478.4169" y2="470.4169"/><line style="stroke:#181818;stroke-width:1.0;" x1="422" x2="414" y1="591.2769" y2="591.2769"/><line style="stroke:#181818;stroke-width:1.0;" x1="422" x2="414" y1="588.2769" y2="588.2769"/><line style="stroke:#181818;stroke-width:1.0;" x1="418" x2="418" y1="587.2769" y2="595.2769"/></g><!--link Student to CreditCard--><g id="link_Student_CreditCard"><path codeLine="79" d="M695,550.9669 C695,570.1269 695,561.2169 695,580.3669 " fill="none" id="Student-CreditCard" style="stroke:#181818;stroke-width:1.0;"/><line style="stroke:#181818;stroke-width:1.0;" x1="695" x2="695" y1="546.9669" y2="535.9669"/><ellipse cx="695" cy="546.9669" fill="none" rx="4" ry="4" style="stroke:#181818;stroke-width:1.0;"/><line style="stroke:#181818;stroke-width:1.0;" x1="691" x2="699" y1="539.9669" y2="539.9669"/><line style="stroke:#181818;stroke-width:1.0;" x1="695" x2="695" y1="584.3669" y2="595.3669"/><ellipse cx="695" cy="584.3669" fill="none" rx="4" ry="4" style="stroke:#181818;stroke-width:1.0;"/><line style="stroke:#181818;stroke-width:1.0;" x1="699" x2="691" y1="591.3669" y2="591.3669"/></g><!--link Student to Person--><g id="link_Student_Person"><path codeLine="80" d="M592.24,530.4169 C549.66,530.4169 522.5,530.4169 522.5,530.4169 C522.5,530.4169 522.5,555.1969 522.5,587.4569 " fill="none" id="Student-Person" style="stroke:#181818;stroke-width:1.0;"/><line style="stroke:#181818;stroke-width:1.0;" x1="596.24" x2="607.24" y1="530.4169" y2="530.4169"/><ellipse cx="596.24" cy="530.4169" fill="none" rx="4" ry="4" style="stroke:#181818;stroke-width:1.0;"/><line style="stroke:#181818;stroke-width:1.0;" x1="603.24" x2="603.24" y1="526.4169" y2="534.4169"/><line style="stroke:#181818;stroke-width:1.0;" x1="526.5" x2="518.5" y1="591.4569" y2="591.4569"/><line style="stroke:#181818;stroke-width:1.0;" x1="526.5" x2="518.5" y1="588.4569" y2="588.4569"/><line style="stroke:#181818;stroke-width:1.0;" x1="522.5" x2="522.5" y1="587.4569" y2="595.4569"/></g><!--link Session to Teacher--><g id="link_Session_Teacher"><path codeLine="81" d="M361.33,370.3169 C361.33,399.4469 361.33,404.4269 361.33,427.8069 " fill="none" id="Session-Teacher" style="stroke:#181818;stroke-width:1.0;"/><line style="stroke:#181818;stroke-width:1.0;" x1="361.33" x2="355.33" y1="360.3169" y2="352.3169"/><line style="stroke:#181818;stroke-width:1.0;" x1="361.33" x2="367.33" y1="360.3169" y2="352.3169"/><line style="stroke:#181818;stroke-width:1.0;" x1="361.33" x2="361.33" y1="360.3169" y2="352.3169"/><ellipse cx="361.33" cy="366.3169" fill="none" rx="4" ry="4" style="stroke:#181818;stroke-width:1.0;"/><line style="stroke:#181818;stroke-width:1.0;" x1="365.33" x2="357.33" y1="431.8069" y2="431.8069"/><line style="stroke:#181818;stroke-width:1.0;" x1="365.33" x2="357.33" y1="428.8069" y2="428.8069"/><line style="stroke:#181818;stroke-width:1.0;" x1="361.33" x2="361.33" y1="427.8069" y2="435.8069"/></g><!--link Session to Course--><g id="link_Session_Course"><path codeLine="82" d="M335.17,370.2169 C335.17,409.1169 335.17,428.4169 335.17,428.4169 C335.17,428.4169 259.69,428.4169 193.18,428.4169 " fill="none" id="Session-Course" style="stroke:#181818;stroke-width:1.0;"/><line style="stroke:#181818;stroke-width:1.0;" x1="335.17" x2="329.17" y1="360.2169" y2="352.2169"/><line style="stroke:#181818;stroke-width:1.0;" x1="335.17" x2="341.17" y1="360.2169" y2="352.2169"/><line style="stroke:#181818;stroke-width:1.0;" x1="335.17" x2="335.17" y1="360.2169" y2="352.2169"/><ellipse cx="335.17" cy="366.2169" fill="none" rx="4" ry="4" style="stroke:#181818;stroke-width:1.0;"/><line style="stroke:#181818;stroke-width:1.0;" x1="189.18" x2="189.18" y1="432.4169" y2="424.4169"/><line style="stroke:#181818;stroke-width:1.0;" x1="192.18" x2="192.18" y1="432.4169" y2="424.4169"/><line style="stroke:#181818;stroke-width:1.0;" x1="193.18" x2="185.18" y1="428.4169" y2="428.4169"/></g><!--link Session to Assistant--><g id="link_Session_Assistant"><path codeLine="83" d="M456.25,370.3169 C456.25,399.4469 456.25,397.4269 456.25,420.8069 " fill="none" id="Session-Assistant" style="stroke:#181818;stroke-width:1.0;"/><line style="stroke:#181818;stroke-width:1.0;" x1="456.25" x2="450.25" y1="360.3169" y2="352.3169"/><line style="stroke:#181818;stroke-width:1.0;" x1="456.25" x2="462.25" y1="360.3169" y2="352.3169"/><line style="stroke:#181818;stroke-width:1.0;" x1="456.25" x2="456.25" y1="360.3169" y2="352.3169"/><ellipse cx="456.25" cy="366.3169" fill="none" rx="4" ry="4" style="stroke:#181818;stroke-width:1.0;"/><line style="stroke:#181818;stroke-width:1.0;" x1="456.25" x2="456.25" y1="424.8069" y2="435.8069"/><ellipse cx="456.25" cy="424.8069" fill="none" rx="4" ry="4" style="stroke:#181818;stroke-width:1.0;"/><line style="stroke:#181818;stroke-width:1.0;" x1="460.25" x2="452.25" y1="431.8069" y2="431.8069"/></g><!--link Inscription to Student--><g id="link_Inscription_Student"><path codeLine="84" d="M669.75,329.4769 C669.75,358.9369 669.75,371.5469 669.75,403.7169 " fill="none" id="Inscription-Student" style="stroke:#181818;stroke-width:1.0;"/><line style="stroke:#181818;stroke-width:1.0;" x1="669.75" x2="663.75" y1="319.4769" y2="311.4769"/><line style="stroke:#181818;stroke-width:1.0;" x1="669.75" x2="675.75" y1="319.4769" y2="311.4769"/><line style="stroke:#181818;stroke-width:1.0;" x1="669.75" x2="669.75" y1="319.4769" y2="311.4769"/><ellipse cx="669.75" cy="325.4769" fill="none" rx="4" ry="4" style="stroke:#181818;stroke-width:1.0;"/><line style="stroke:#181818;stroke-width:1.0;" x1="673.75" x2="665.75" y1="407.7169" y2="407.7169"/><line style="stroke:#181818;stroke-width:1.0;" x1="673.75" x2="665.75" y1="404.7169" y2="404.7169"/><line style="stroke:#181818;stroke-width:1.0;" x1="669.75" x2="669.75" y1="403.7169" y2="411.7169"/></g><!--link Course to Faculty--><g id="link_Course_Faculty"><path codeLine="85" d="M79.5,545.8869 C79.5,575.4369 79.5,578.2669 79.5,604.7769 " fill="none" id="Course-Faculty" style="stroke:#181818;stroke-width:1.0;"/><line style="stroke:#181818;stroke-width:1.0;" x1="79.5" x2="73.5" y1="535.8869" y2="527.8869"/><line style="stroke:#181818;stroke-width:1.0;" x1="79.5" x2="85.5" y1="535.8869" y2="527.8869"/><line style="stroke:#181818;stroke-width:1.0;" x1="79.5" x2="79.5" y1="535.8869" y2="527.8869"/><ellipse cx="79.5" cy="541.8869" fill="none" rx="4" ry="4" style="stroke:#181818;stroke-width:1.0;"/><line style="stroke:#181818;stroke-width:1.0;" x1="79.5" x2="79.5" y1="608.7769" y2="619.7769"/><ellipse cx="79.5" cy="608.7769" fill="none" rx="4" ry="4" style="stroke:#181818;stroke-width:1.0;"/><line style="stroke:#181818;stroke-width:1.0;" x1="83.5" x2="75.5" y1="615.7769" y2="615.7769"/></g><!--link Course to Course--><g id="link_Course_Course"><path codeLine="86" d="M104.5,401.8269 C104.5,401.8269 6,416.4169 6,416.4169 C6,416.4169 6,533.4169 6,533.4169 C6,533.4169 129.5,533.4169 129.5,533.4169 C129.5,533.4169 129.5,546.3169 129.5,542.9069 " fill="none" id="Course-Course" style="stroke:#181818;stroke-width:1.0;"/><line style="stroke:#181818;stroke-width:1.0;" x1="104.5" x2="110.5" y1="411.8269" y2="419.8269"/><line style="stroke:#181818;stroke-width:1.0;" x1="104.5" x2="98.5" y1="411.8269" y2="419.8269"/><line style="stroke:#181818;stroke-width:1.0;" x1="104.5" x2="104.5" y1="411.8269" y2="419.8269"/><ellipse cx="104.5" cy="405.8269" fill="none" rx="4" ry="4" style="stroke:#181818;stroke-width:1.0;"/><line style="stroke:#181818;stroke-width:1.0;" x1="129.5" x2="129.5" y1="538.9069" y2="527.9069"/><ellipse cx="129.5" cy="538.9069" fill="none" rx="4" ry="4" style="stroke:#181818;stroke-width:1.0;"/><line style="stroke:#181818;stroke-width:1.0;" x1="125.5" x2="133.5" y1="531.9069" y2="531.9069"/></g><!--SRC=[dLDDQzmm4BthLqol2mljePUzXIs1Gle13PIUZ29Dug6sv4fZqgMR_zvnP7ibrIcqfrq_pRmtRpvQiWZO3to27lix356r4sGec0vL_4vkq47ty87SiTCnVYNBBRnv-pfxko67jwS1uLFWrYicxX38HVapCgfNt6AFq3Zli57e13x1LOmKMJk6Nse7P0-ImFY0GUtt0bXaJLriyeUd9LUeJQ21oRiceX1vbrWoF4_SmHpLL3ehuorgqsBuZrg-y6ZnNrpiO8mOdExn0943kGU11kdiemzsXS04jCH77UmBkhdlMjVuCKIiP3bvB53GonYgO6sqnPxCDzGXn-yfHBuHRUyEOBLCTmUo5ZLalBtOMsl-BElrKidFn1_Bhap41GHt91lsJZII4bC_gM4lNVvJxlrb7ROrOvfTPLqwBzJsYZEDbVDQcx6Jtqs-OgXhod6Tv7QMVtGOhiUkgzoxSRh7V4d8PL_uSw2W9tENVcIYpnkm9GZtoKAv1m5_Z2I5Lhse75sEzkpt-_DvdgZQEiYd594DuMzXypghvH1B_kN89jIViuuMBrbyIJwJrd3gKO4A-UfHvVkpb9darDpUEMLUYWfDNxy1]--></g></svg>